Coordinates
version=1
nRows=20
nColumns=63
inDegrees=yes

Units are S.I. units (second, meters, Newtons, ...)
If the header above contains a line with 'inDegrees', this indicates whether rotational values are in degrees (yes) or radians (no).

endheader
time	pelvis_tilt	pelvis_list	pelvis_rotation	pelvis_tx	pelvis_ty	pelvis_tz	hip_flexion_r	hip_adduction_r	hip_rotation_r	knee_angle_r	knee_angle_r_beta	ankle_angle_r	subtalar_angle_r	mtp_angle_r	hip_flexion_l	hip_adduction_l	hip_rotation_l	knee_angle_l	knee_angle_l_beta	ankle_angle_l	subtalar_angle_l	mtp_angle_l	L5_S1_Flex_Ext	L5_S1_Lat_Bending	L5_S1_axial_rotation	L4_L5_Flex_Ext	L4_L5_Lat_Bending	L4_L5_axial_rotation	L3_L4_Flex_Ext	L3_L4_Lat_Bending	L3_L4_axial_rotation	L2_L3_Flex_Ext	L2_L3_Lat_Bending	L2_L3_axial_rotation	L1_L2_Flex_Ext	L1_L2_Lat_Bending	L1_L2_axial_rotation	L1_T12_Flex_Ext	L1_T12_Lat_Bending	L1_T12_axial_rotation	Abs_r3	Abs_r2	Abs_r1	Abs_t1	Abs_t2	neck_flexion	neck_bending	neck_rotation	arm_flex_r	arm_add_r	arm_rot_r	elbow_flex_r	pro_sup_r	wrist_flex_r	wrist_dev_r	arm_flex_l	arm_add_l	arm_rot_l	elbow_flex_l	pro_sup_l	wrist_flex_l	wrist_dev_l
1.716667	1.078392	-8.231769	114.212187	0.236347	1.040066	0.389069	-4.951889	1.926830	-3.039482	3.790703	0.066160	30.048412	-15.222029	0.000000	-3.376614	-3.619869	13.963559	2.743352	0.047881	30.940863	12.353740	0.000000	0.048409	0.077461	0.095450	0.089901	0.103024	0.101415	0.079531	0.188340	0.101415	0.055327	0.188340	0.083518	0.044953	0.157959	0.077553	0.027661	0.119988	0.071587	0.345781	0.876259	0.530862	0.000000	0.000000	27.226067	0.983701	-16.740441	46.156054	-9.046461	41.137258	77.719519	79.199126	17.053361	20.587581	3.757505	-10.304867	135.039920	2.258241	0.457978	-8.228850	-19.118882
1.733333	1.113813	-8.068006	113.945479	0.236611	1.039873	0.388270	-5.138105	2.022683	-2.742845	3.844480	0.067099	29.927965	-15.237319	0.000000	-3.645220	-3.727357	13.890891	2.651352	0.046275	30.971163	12.150507	0.000000	0.039552	0.082721	0.090720	0.073453	0.110019	0.096390	0.064981	0.201127	0.096390	0.045204	0.201127	0.079380	0.036728	0.168684	0.073710	0.022600	0.128134	0.068040	0.282518	0.935753	0.504556	0.000000	0.000000	27.201395	1.306173	-16.463297	42.126298	-9.215379	39.403416	76.319605	79.915649	16.634761	20.573306	3.392075	-10.096590	135.015580	2.136848	1.830249	-8.853634	-18.771329
1.750000	1.160089	-7.901258	113.584666	0.236921	1.039701	0.387409	-5.318689	2.115969	-2.396743	3.914703	0.068324	29.806001	-15.224446	0.000000	-3.943904	-3.836379	13.736958	2.534116	0.044229	30.952086	11.928169	0.000000	0.032033	0.092881	0.102319	0.059489	0.123531	0.108714	0.052628	0.225830	0.108714	0.036611	0.225830	0.089529	0.029746	0.189402	0.083134	0.018304	0.143872	0.076739	0.228811	1.050683	0.569069	0.000000	0.000000	27.138482	1.576051	-16.062843	38.453917	-9.460049	37.978010	74.705838	80.419771	16.109218	20.288081	3.010601	-9.903805	132.204559	2.268901	5.288451	-9.220050	-18.392414
1.766667	1.239137	-7.726313	113.105341	0.237237	1.039630	0.386533	-5.485732	2.220065	-2.012632	3.997222	0.069765	29.666947	-15.165369	0.000000	-4.267943	-3.959126	13.461415	2.398362	0.041859	30.873645	11.683635	0.000000	0.026746	0.113423	0.137753	0.049669	0.150852	0.146363	0.043940	0.275776	0.146363	0.030567	0.275776	0.120534	0.024836	0.231292	0.111924	0.015282	0.175692	0.103315	0.191041	1.283061	0.766141	0.000000	0.000000	27.022305	1.784652	-15.445212	35.181026	-9.804052	36.936463	72.929188	81.244856	15.481548	19.822393	3.160718	-9.487604	133.378706	1.626629	4.524950	-8.805959	-18.706953
1.783333	1.321770	-7.560601	112.514412	0.237636	1.039643	0.385612	-5.635669	2.305802	-1.606179	4.087986	0.071349	29.530152	-15.065102	0.000000	-4.610369	-4.066421	13.091940	2.246810	0.039214	30.732728	11.410546	0.000000	0.023459	0.138494	0.186882	0.043565	0.184197	0.198562	0.038540	0.336735	0.198562	0.026811	0.336735	0.163521	0.021784	0.282417	0.151841	0.013404	0.214527	0.140161	0.167563	1.566674	1.039380	0.000000	0.000000	26.855738	1.981274	-14.635676	32.360894	-10.210346	36.482957	70.996883	82.737258	14.506977	19.141727	3.450502	-9.079221	133.954593	1.140078	3.868581	-8.133287	-19.078515
1.800000	1.409168	-7.406436	111.822034	0.238090	1.039750	0.384643	-5.769266	2.374224	-1.190382	4.176439	0.072893	29.389043	-14.931630	0.000000	-4.964616	-4.157961	12.642880	2.088016	0.036443	30.539356	11.110687	0.000000	0.022693	0.168175	0.242743	0.042144	0.223673	0.257915	0.037283	0.408900	0.257915	0.025936	0.408900	0.212400	0.021073	0.342942	0.197229	0.012967	0.260503	0.182057	0.162097	1.902428	1.350065	0.000000	0.000000	26.640315	2.191463	-13.607483	29.952614	-10.623124	36.604906	68.895127	84.690501	13.193016	18.309463	3.857198	-8.680370	133.986524	0.836449	3.365436	-7.297871	-19.464375
1.816667	1.515254	-7.247674	111.038108	0.238538	1.039962	0.383676	-5.889521	2.442455	-0.758086	4.267819	0.074487	29.247945	-14.768078	0.000000	-5.334770	-4.250036	12.109728	1.927773	0.033646	30.323893	10.773229	0.000000	0.022211	0.204999	0.300733	0.041247	0.272649	0.319529	0.036490	0.498435	0.319529	0.025384	0.498435	0.263141	0.020625	0.418035	0.244346	0.012691	0.317544	0.225550	0.158647	2.318994	1.672587	0.000000	0.000000	26.370367	2.359115	-12.402377	27.943850	-11.020346	37.339355	66.556951	86.631275	11.393502	17.088790	4.360767	-8.272214	133.500896	0.724357	2.996147	-6.310505	-19.842110
1.833333	1.638242	-7.101007	110.202829	0.238941	1.040246	0.382746	-5.990600	2.506868	-0.339875	4.339244	0.075734	29.122084	-14.575835	0.000000	-5.698098	-4.336180	11.539671	1.768501	0.030866	30.101172	10.408876	0.000000	0.023405	0.246568	0.346372	0.043466	0.327935	0.368020	0.038453	0.599505	0.368020	0.026750	0.599505	0.303076	0.021734	0.502801	0.281427	0.013374	0.381934	0.259779	0.167183	2.789226	1.926418	0.000000	0.000000	26.098176	2.568182	-11.014478	26.251256	-11.291601	38.517801	63.964454	88.423060	9.471267	15.937178	4.920858	-7.862826	132.547907	0.801876	2.768390	-5.245788	-20.204843
1.850000	1.793329	-6.959770	109.351930	0.239205	1.040576	0.381899	-6.072641	2.583953	0.060283	4.389854	0.076617	29.012208	-14.364622	0.000000	-6.048002	-4.433868	10.972024	1.613495	0.028161	29.891756	10.016143	0.000000	0.025350	0.294809	0.375648	0.047078	0.392096	0.399126	0.041648	0.716798	0.399126	0.028973	0.716798	0.328692	0.023540	0.601174	0.305214	0.014485	0.456659	0.281736	0.181075	3.334937	2.089240	0.000000	0.000000	25.831679	2.786796	-9.484418	24.810329	-11.446854	39.985826	61.097952	89.707322	7.441740	14.661665	5.507941	-7.433730	131.104456	1.053595	2.613012	-4.067873	-20.563468
1.866667	1.988771	-6.824630	108.508065	0.239279	1.040907	0.381149	-6.131337	2.680928	0.414622	4.425018	0.077231	28.927343	-14.112110	0.000000	-6.377562	-4.549732	10.351432	1.465785	0.025583	29.726864	9.684190	0.000000	0.028093	0.349952	0.389288	0.052171	0.465436	0.413618	0.046154	0.850873	0.413618	0.032107	0.850873	0.340627	0.026087	0.713621	0.316296	0.016052	0.542075	0.291966	0.200665	3.958723	2.165103	0.000000	0.000000	25.588902	2.955838	-7.886366	23.536831	-11.516265	41.480096	58.032014	90.551722	5.354697	13.265187	6.111192	-7.002676	128.957372	1.538880	2.620149	-2.809040	-20.940993
1.883333	2.238196	-6.680734	107.699387	0.239071	1.041197	0.380512	-6.177190	2.819263	0.754311	4.452456	0.077710	28.858883	-13.884897	0.000000	-6.690110	-4.702607	9.782385	1.333804	0.023279	29.614126	9.315739	0.000000	0.029531	0.414959	0.377440	0.054842	0.551895	0.401030	0.048516	1.008931	0.401030	0.033751	1.008931	0.330260	0.027422	0.846184	0.306670	0.016874	0.642771	0.283080	0.210936	4.694099	2.099206	0.000000	0.000000	25.390325	3.061391	-6.183187	22.461380	-11.533328	43.070346	54.780064	90.795886	3.312953	11.691285	6.677549	-6.529106	126.319102	2.127357	2.739665	-1.421494	-21.302686
1.900000	2.541654	-6.566057	106.950360	0.238595	1.041374	0.379941	-6.188558	2.991386	1.078620	4.453065	0.077721	28.787926	-13.691733	0.000000	-6.954983	-4.885037	9.313793	1.202459	0.020987	29.547038	8.895895	0.000000	0.034902	0.485584	0.353632	0.064816	0.645826	0.375734	0.057340	1.180648	0.375734	0.039889	1.180648	0.309428	0.032410	0.990202	0.287326	0.019943	0.752169	0.265224	0.249300	5.493020	1.966796	0.000000	0.000000	25.260985	3.073883	-4.563079	21.380371	-11.545037	44.206581	51.542153	90.888303	1.434872	10.268993	7.202140	-6.010998	124.006820	2.655753	2.638928	0.124366	-21.658500
1.916667	2.903427	-6.480112	106.318781	0.237786	1.041416	0.379451	-6.173376	3.210641	1.357421	4.421990	0.077178	28.704026	-13.542251	0.000000	-7.161359	-5.109179	9.028059	1.075749	0.018775	29.519334	8.398724	0.000000	0.043994	0.562262	0.302226	0.081702	0.747809	0.321115	0.072278	1.367085	0.321115	0.050281	1.367085	0.264448	0.040853	1.146565	0.245559	0.025138	0.870944	0.226670	0.314246	6.360424	1.680892	0.000000	0.000000	25.201978	3.037723	-2.959029	20.331499	-11.583442	45.101059	48.344751	90.502552	-0.286349	9.038137	7.651588	-5.458036	121.902094	3.107330	2.574314	1.722924	-22.041471
1.933333	3.298676	-6.421232	105.784282	0.236720	1.041343	0.379055	-6.127649	3.457663	1.603355	4.388489	0.076594	28.588210	-13.448434	0.000000	-7.316213	-5.355269	8.885798	0.959964	0.016755	29.526716	7.844549	0.000000	0.053458	0.641467	0.231369	0.099277	0.853151	0.245829	0.087826	1.559662	0.245829	0.061097	1.559662	0.202448	0.049641	1.308079	0.187987	0.030546	0.993632	0.173527	0.381844	7.256400	1.286804	0.000000	0.000000	25.202103	2.895073	-1.483785	19.348245	-11.669567	46.177123	45.243785	89.713086	-1.737335	7.883107	8.041680	-4.878592	120.541172	3.452527	2.414874	3.033715	-22.348727
1.950000	3.729555	-6.396517	105.354223	0.235405	1.041133	0.378738	-6.058480	3.735673	1.823351	4.333911	0.075641	28.435438	-13.388730	0.000000	-7.415217	-5.627341	8.890370	0.851652	0.014864	29.570092	7.244555	0.000000	0.063757	0.723201	0.140352	0.118402	0.961858	0.149124	0.104746	1.758391	0.149124	0.072867	1.758391	0.122808	0.059204	1.474752	0.114036	0.036431	1.120239	0.105264	0.455407	8.180997	0.780594	0.000000	0.000000	25.265899	2.674833	-0.100620	18.298220	-11.820800	46.636195	42.319854	89.181714	-2.814307	6.978785	8.357539	-4.279087	119.955118	3.684299	2.328052	3.926343	-22.605565
1.966667	4.166988	-6.400791	105.019645	0.233916	1.040808	0.378512	-5.971461	4.021926	2.039937	4.271791	0.074557	28.251634	-13.375025	0.000000	-7.468724	-5.903807	8.996156	0.750622	0.013101	29.649093	6.652226	0.000000	0.072966	0.803233	0.025700	0.135506	1.068300	0.027306	0.119876	1.952981	0.027306	0.083393	1.952981	0.022487	0.067756	1.637953	0.020881	0.041693	1.244208	0.019275	0.521191	9.086333	0.142935	0.000000	0.000000	25.377343	2.404095	1.182607	17.361541	-12.001305	47.649289	39.474717	87.621921	-3.567827	6.093610	8.587990	-3.675473	120.389983	3.801727	2.305068	4.037789	-22.673310
1.983333	4.594574	-6.428294	104.734311	0.232329	1.040391	0.378390	-5.869400	4.298556	2.298921	4.213989	0.073548	28.053714	-13.388198	0.000000	-7.492595	-6.166916	9.161159	0.656642	0.011461	29.753905	6.062812	0.000000	0.079192	0.879620	-0.101160	0.147067	1.169895	-0.107483	0.130105	2.138709	-0.107483	0.090509	2.138709	-0.088515	0.073538	1.793722	-0.082193	0.045250	1.362532	-0.075870	0.565661	9.950440	-0.562623	0.000000	0.000000	25.535446	2.095039	2.344878	16.507953	-12.198022	49.097657	36.733068	85.105014	-3.996247	5.189578	8.738633	-3.070245	121.893062	3.808875	2.346444	3.230617	-22.492116
2.000000	5.008340	-6.466805	104.510843	0.230669	1.039906	0.378375	-5.767930	4.567429	2.575967	4.150318	0.072437	27.842360	-13.406411	0.000000	-7.494185	-6.420727	9.387439	0.571629	0.009977	29.881906	5.483756	0.000000	0.081951	0.952043	-0.242476	0.152191	1.266217	-0.257630	0.134637	2.314798	-0.257630	0.093662	2.314798	-0.212166	0.076100	1.941406	-0.197011	0.046827	1.474715	-0.181857	0.585368	10.769702	-1.348577	0.000000	0.000000	25.714762	1.779441	3.427681	15.720499	-12.408748	50.856280	34.135051	81.828579	-4.111531	4.266827	8.806159	-2.479501	124.116031	3.708740	2.484162	1.699295	-22.205915
2.016667	5.400016	-6.508361	104.304308	0.229011	1.039388	0.378482	-5.668516	4.817877	2.918662	4.093419	0.071444	27.619656	-13.437416	0.000000	-7.486774	-6.654897	9.627706	0.498388	0.008699	30.021976	4.920529	0.000000	0.080567	1.019544	-0.384650	0.149621	1.355993	-0.408691	0.132364	2.478919	-0.408691	0.092080	2.478919	-0.336569	0.074815	2.079054	-0.312528	0.046036	1.579274	-0.288488	0.575483	11.533285	-2.139308	0.000000	0.000000	25.899918	1.479700	4.431591	14.996656	-12.653952	52.905368	31.710854	77.843442	-3.885068	3.302214	8.799463	-1.906529	126.978454	3.505339	2.570478	-0.461420	-21.832924
2.033333	5.766711	-6.542109	104.083685	0.227393	1.038869	0.378716	-5.580830	5.044530	3.318055	4.043822	0.070578	27.390886	-13.444343	0.000000	-7.484690	-6.865811	9.860430	0.435051	0.007593	30.166835	4.368512	0.000000	0.074804	1.082452	-0.518241	0.138918	1.439661	-0.550631	0.122895	2.631874	-0.550631	0.085493	2.631874	-0.453461	0.069463	2.207337	-0.421071	0.042743	1.676719	-0.388681	0.534317	12.244916	-2.882301	0.000000	0.000000	26.069352	1.219641	5.403965	14.323558	-12.976048	55.113658	29.532656	73.372913	-3.298195	2.389905	8.727322	-1.352600	130.178278	3.209224	2.693262	-3.069653	-21.442184
